<?xml version="1.0" encoding="UTF-8"?>
<svg  viewBox="0 0 18 18" version="1.1" xmlns="http://www.w3.org/2000/svg" xmlns:xlink="http://www.w3.org/1999/xlink">
    <title>Group 427319912</title>
    <defs>
        <linearGradient x1="63.3207322%" y1="12.5000008%" x2="244.633904%" y2="100.000013%" id="linearGradient-1">
            <stop stop-color="#508CFF" offset="0%"></stop>
            <stop stop-color="#508CFF" stop-opacity="0.699999988" offset="100%"></stop>
        </linearGradient>
        <linearGradient x1="131.313172%" y1="100%" x2="131.313172%" y2="100.000012%" id="linearGradient-2">
            <stop stop-color="#508CFF" offset="0%"></stop>
            <stop stop-color="#508CFF" stop-opacity="0.699999988" offset="100%"></stop>
        </linearGradient>
    </defs>
    <g id="页面-1" stroke="none" stroke-width="1" fill="none" fill-rule="evenodd">
        <g id="中央行政事业单位机构库-单位机构数据库管理" transform="translate(-332.000000, -108.000000)" fill-rule="nonzero">
            <g id="Frame-427320054" transform="translate(332.000000, 107.000000)">
                <g id="Group-427319912" transform="translate(0.000000, 1.500000)">
                    <path d="M8,17 L8,17 L8,17 L0,17 L0,9 C4.418278,9 8,12.581722 8,17 Z" id="Rectangle-34624347" fill="url(#linearGradient-1)"></path>
                    <path d="M17,17 L17,17 L17,17 L9,17 L9,9 C13.418278,9 17,12.581722 17,17 Z" id="Rectangle-34624348" fill="url(#linearGradient-2)" transform="translate(13.000000, 13.000000) scale(1, -1) rotate(-180.000000) translate(-13.000000, -13.000000) "></path>
                    <path d="M8,8 L8,8 L8,8 L0,8 L0,0 C4.418278,-8.11624501e-16 8,3.581722 8,8 Z" id="Rectangle-34624349" fill="url(#linearGradient-1)" transform="translate(4.000000, 4.000000) scale(1, -1) translate(-4.000000, -4.000000) "></path>
                    <path d="M17,8 L17,8 L17,8 L9,8 L9,0 C13.418278,-8.11624501e-16 17,3.581722 17,8 Z" id="Rectangle-34624350" fill="url(#linearGradient-2)" transform="translate(13.000000, 4.000000) rotate(180.000000) translate(-13.000000, -4.000000) "></path>
                </g>
            </g>
        </g>
    </g>
</svg>
