<svg xmlns="http://www.w3.org/2000/svg" viewBox="0 0 14 14.001">
  <g transform="translate(-0.01 0.001)">
    <path
      fill="currentColor"
      d="M13.461,4.284A7,7,0,1,0,14.01,7a7,7,0,0,0-.549-2.716Zm-.8,5.093A6.127,6.127,0,1,1,13.138,7a6.127,6.127,0,0,1-.48,2.376Z"
      transform="translate(0 0)" />
    <path fill="currentColor"
      d="M325.387,258.413h-1.793l.9-.9a.391.391,0,0,0-.553-.553l-1.564,1.564-.013.014-.006.007-.007.008-.007.009,0,.006-.007.01,0,.005-.007.011,0,.005-.006.011,0,.006-.005.01,0,.007,0,.009,0,.008,0,.008,0,.01,0,.007,0,.011,0,.006,0,.012a.029.029,0,0,1,0,.006l0,.012a.034.034,0,0,1,0,.006l0,.012a.038.038,0,0,1,0,.007.073.073,0,0,0,0,.012.072.072,0,0,1,0,.01s0,.006,0,.01v.039a.04.04,0,0,0,0,.01s0,.006,0,.01,0,.008,0,.012a.025.025,0,0,0,0,.007s0,.008,0,.012a.034.034,0,0,0,0,.006l0,.012a.023.023,0,0,0,0,.006l0,.012,0,.006,0,.011,0,.007,0,.01,0,.008,0,.008,0,.009,0,.007.005.01,0,.006.006.011,0,.006.007.011,0,.005.007.01,0,.006.007.009.007.008.006.007.013.014,1.564,1.564a.391.391,0,0,0,.553-.553l-.9-.9h1.793a1.564,1.564,0,1,1,0,3.128h-1.955a.391.391,0,0,0,0,.782h1.955a2.346,2.346,0,0,0,0-4.692Z"
      transform="translate(-317.492 -252.977)" />
  </g>
</svg>