<svg xmlns="http://www.w3.org/2000/svg" viewBox="0 0 14 13.998">
  <g transform="translate(-54.701 -54.7)" fill="currentColor">
    <path
      d="M60.656,90.807l-5.048,5.048a.494.494,0,0,1-.7-.7l5.048-5.048a.494.494,0,1,1,.7.7Z"
      transform="translate(-0.063 -34.74)" />
    <path
      d="M532.663,562.642l-5.048,5.048a.494.494,0,0,1-.7-.7l5.048-5.048a.494.494,0,0,1,.7.7Z"
      transform="translate(-464.63 -499.138)" />
    <path
      d="M293.655,564.706l-1.527,1.527a.494.494,0,0,1-.7-.7l1.527-1.527a.494.494,0,1,1,.7.7Z"
      transform="translate(-232.937 -501.312)" />
    <path
      d="M168.867,468.894,167.761,470a.494.494,0,0,1-.7-.7l1.107-1.107a.494.494,0,1,1,.7.7Z"
      transform="translate(-110.554 -406.986)" />
    <path
      d="M415.708,715.906l-1.107,1.106a.494.494,0,0,1-.7-.7l1.107-1.107a.494.494,0,0,1,.7.7Z"
      transform="translate(-353.53 -650.13)" />
    <path
      d="M61.84,438.622l-6.994-6.991a.494.494,0,1,1,.7-.7l6.994,6.994a.493.493,0,1,1-.7.7Z"
      transform="translate(0 -370.069)" />
    <path
      d="M258.16,243.136l-7.382-7.382a.521.521,0,0,1,.737-.737l7.38,7.382a.52.52,0,0,1-.735.737Z"
      transform="translate(-193.02 -177.493)" />
    <path d="M796.619,57.206l-1.6-1.6a.494.494,0,0,1,.7-.7l1.6,1.6a.494.494,0,1,1-.7.7Z"
      transform="translate(-728.762 -0.063)" />
    <path
      d="M398.473,93.566l-2.695-2.695a.494.494,0,0,1,.7-.7l2.7,2.7a.492.492,0,0,1,0,.7.5.5,0,0,1-.7,0Z"
      transform="translate(-335.651 -34.804)" />
    <path
      d="M688.317,383.41l-2.7-2.7a.494.494,0,1,1,.7-.7l2.7,2.7a.492.492,0,0,1,0,.7.5.5,0,0,1-.7,0Z"
      transform="translate(-620.982 -320.135)" />
    <path
      d="M689.429,163.4l-3.218,3.218a.494.494,0,0,1-.7-.7l3.218-3.218a.494.494,0,0,1,.7.7Z"
      transform="translate(-620.877 -106.254)" />
    <path
      d="M581.579,55.544l-3.22,3.218a.494.494,0,0,1-.7-.7l3.22-3.218a.494.494,0,0,1,.7.7Z"
      transform="translate(-514.622)" />
  </g>
</svg>