<svg xmlns="http://www.w3.org/2000/svg" viewBox="0 0 14 13.996">
  <path fill="currentColor"
    d="M155.222,134.694l-5.4,5.4h10.843v-1.166a.583.583,0,0,1,1.166,0v1.75a.583.583,0,0,1-.515.579l-.068,0H148.4l-.038,0,.057,0a.588.588,0,0,1-.13-.014l0,0-.04-.01a.583.583,0,0,1-.242-.97l6-6-6-6a.583.583,0,0,1,.242-.97l.04-.01.055-.01.02,0,.048,0h12.84a.583.583,0,0,1,.583.583v1.75a.583.583,0,1,1-1.166,0V128.43H149.822l5.4,5.4a.578.578,0,0,1,.169.378v.108A.581.581,0,0,1,155.222,134.694Z"
    transform="translate(-147.83 -127.264)" />
</svg>