<svg xmlns="http://www.w3.org/2000/svg" viewBox="0 0 13.9 14">

  <g transform="translate(-94 -91.4)" fill="currentColor">
    <path
      d="M372.645,131.118l-1.6-1.445a.686.686,0,0,0-.966,0v.962a7.936,7.936,0,0,0-2.674.794,6.221,6.221,0,0,0-3.386,5.643c-.013.186-.015.3-.015.316h.007v.042a.832.832,0,0,0,1.665.012c0-.092,0-.181.007-.27a6.271,6.271,0,0,1,.674-2.347,4.35,4.35,0,0,1,1.5-1.655,5.124,5.124,0,0,1,2.219-.729v1.075a.686.686,0,0,0,.966,0l1.6-1.433A.685.685,0,0,0,372.645,131.118Z"
      transform="translate(-265.505 -37.441)" />
    <path
      d="M106.332,105.4H95.571A1.572,1.572,0,0,1,94,103.829V92.97a1.572,1.572,0,0,1,1.571-1.57h2.74a.583.583,0,0,1,0,1.165h-2.74a.405.405,0,0,0-.406.4v10.859a.411.411,0,0,0,.122.29.4.4,0,0,0,.285.117h10.761a.412.412,0,0,0,.286-.118.4.4,0,0,0,.117-.286V101.1a.583.583,0,0,1,1.165,0v2.73a1.56,1.56,0,0,1-.458,1.11,1.582,1.582,0,0,1-1.11.461Z" />
  </g>
</svg>