<svg xmlns="http://www.w3.org/2000/svg" viewBox="0 0 14 14">
  <defs>
    <style>.b{fill: currentColor;}</style>
  </defs>
  <path class="b"
    d="M56.7,29.824H50.048V42.662H56.02v-.949H50.968V30.773h5.37l3,2.916v2.674h.922V33.285Z"
    transform="translate(-49.378 -29.425)" />
  <path class="b"
    d="M191.744,34.684h6.5v.927h-6.5Zm0,4.341h4.815v.927h-4.815Zm0-2.238h4.815v.927h-4.815Zm0-4.243H195v.927h-3.252Zm8.032,1.1h-3.3a.473.473,0,0,1-.477-.466l.018-3.121a.465.465,0,0,1,.3-.425.493.493,0,0,1,.521.1l3.275,3.121a.453.453,0,0,1,.105.505.481.481,0,0,1-.443.288Zm-2.814-.927h1.643l-1.632-1.553Z"
    transform="translate(-189.177 -29.2)" />
  <path class="b"
    d="M559.248,551.88c-1.762,0-1.679-1.066-1.674-1.176,0-.84.939-.881.939-2,0-1-.805-1.5-1.8-1.5s-1.8.5-1.8,1.5c0,1.124.944,1.153.944,2,0,.685-.435,1.176-1.489,1.176-.153,0-.387.012-.387.267v1.028h5.622v-1.028C559.607,551.88,559.358,551.88,559.248,551.88Zm-.533.629h-3.847v-.038c0-.045,0-.069.072-.07a1.546,1.546,0,0,0,1.623-1.684c0-1.17-.874-1.448-.867-1.885.01-.545.439-.78,1.028-.78s.99.343.98.821-.857.67-.857,1.84.569,1.671,1.813,1.671c.07,0,.062.041.062.081Z"
    transform="translate(-546.276 -539.583)" />
</svg>