<svg xmlns="http://www.w3.org/2000/svg" viewBox="0 0 14 13.32">
  <g fill="currentColor" transform="translate(-93.867 -93.867)">
    <path class="a"
      d="M274.246,258.874h.917v-.98h1.113v-.914h-1.113V256h-.917v.98h-1.179v.914h1.179Zm1.31,1.7-.917.849-.851-.849-.655.718.851.718-.851.784.655.653.851-.784.917.784.589-.653-.786-.784.786-.718Zm2.816-3.592h2.75v.914h-2.75Zm0,5.16h2.75v.914h-2.75Zm0-1.437h2.75v.914h-2.75Z"
      transform="translate(-176.191 -159.411)" />
    <path class="a" d="M93.867,93.867v13.32h14V93.867ZM106.779,106.1H94.954V94.954h11.825V106.1Z" />
  </g>
</svg>