<svg xmlns="http://www.w3.org/2000/svg" viewBox="0 0 14 14">

  <g fill="currentColor" transform="translate(-78.08 -80.64)">
    <path class="a"
      d="M89.964,94.64H80.2a2.118,2.118,0,0,1-2.116-2.116V82.756A2.118,2.118,0,0,1,80.2,80.64h9.767a2.118,2.118,0,0,1,2.116,2.116v9.767A2.119,2.119,0,0,1,89.964,94.64ZM80.2,81.617a1.141,1.141,0,0,0-1.14,1.14v9.767a1.141,1.141,0,0,0,1.14,1.14h9.767a1.141,1.141,0,0,0,1.14-1.14V82.756a1.141,1.141,0,0,0-1.14-1.14Z"
      transform="translate(0 0)" />
    <path class="a"
      d="M225.431,211.86h-8.623a.488.488,0,0,1,0-.976h8.623a.488.488,0,0,1,0,.976Zm0,2.034h-8.623a.488.488,0,0,1,0-.976h8.623a.488.488,0,0,1,0,.976Zm-6.988-6.272a.488.488,0,0,1-.345-.833l2.586-2.587a.488.488,0,0,1,.69,0l2.522,2.522a.488.488,0,1,1-.69.69l-2.177-2.177-2.241,2.242a.486.486,0,0,1-.345.143Z"
      transform="translate(-136.04 -121.454)" />
    <path class="a"
      d="M483.049,219.383a.489.489,0,0,1-.489-.489v-4.645a.489.489,0,0,1,.978,0v4.645A.489.489,0,0,1,483.049,219.383Z"
      transform="translate(-398.05 -131.006)" />
  </g>
</svg>