<svg xmlns="http://www.w3.org/2000/svg" viewBox="0 0 12.261 13.587">
  <path fill="currentColor"
    d="M103.489,46.546a1.866,1.866,0,0,1,1.863,1.863v9.86a1.865,1.865,0,0,1-1.863,1.863H94.954a1.865,1.865,0,0,1-1.863-1.863v-9.86a1.866,1.866,0,0,1,1.863-1.863Zm.869,11.723v-9.86a.87.87,0,0,0-.869-.869H102.7v4.142a.5.5,0,0,1-.5.5H96.239a.5.5,0,0,1-.5-.5V47.54h-.788a.87.87,0,0,0-.869.869v9.86a.87.87,0,0,0,.869.869h8.534A.87.87,0,0,0,104.358,58.269Zm-7.622-7.084h4.971V47.54H96.736Zm3.48-.828a.663.663,0,1,0-.663-.663.663.663,0,0,0,.663.663"
    transform="translate(-93.091 -46.546)" />
</svg>