<svg xmlns="http://www.w3.org/2000/svg" viewBox="0 0 12.349 14.113">
  <g transform="translate(-64)">
    <path fill="currentColor"
      d="M74.585,0H65.764A1.769,1.769,0,0,0,64,1.764V12.349a1.769,1.769,0,0,0,1.764,1.764h8.821a1.769,1.769,0,0,0,1.764-1.764V1.764A1.769,1.769,0,0,0,74.585,0ZM65.764,13.231a.833.833,0,0,1-.882-.882V1.764a.833.833,0,0,1,.882-.882h8.821a.833.833,0,0,1,.882.882V12.349a.833.833,0,0,1-.882.882Z" />
    <path fill="currentColor"
      d="M199.939,128h-7.057a.833.833,0,0,0-.882.882v1.764a.833.833,0,0,0,.882.882h7.057a.833.833,0,0,0,.882-.882v-1.764A.833.833,0,0,0,199.939,128Zm-7.057,2.646v-1.764h7.057v1.764Zm7.057,1.764h-1.764a.833.833,0,0,0-.882.882v4.41a.833.833,0,0,0,.882.882h1.764a.833.833,0,0,0,.882-.882v-4.41A.833.833,0,0,0,199.939,132.41Zm-1.764,5.292v-4.41h1.764v4.41Zm-5.292-5.292a.882.882,0,1,0,.882.882A.833.833,0,0,0,192.882,132.41Zm2.646,0a.882.882,0,1,0,.882.882A.833.833,0,0,0,195.528,132.41Zm-2.646,2.205a.882.882,0,1,0,.882.882A.833.833,0,0,0,192.882,134.616Zm2.646,0a.882.882,0,1,0,.882.882A.833.833,0,0,0,195.528,134.616Zm-2.646,2.205a.882.882,0,1,0,.882.882A.833.833,0,0,0,192.882,136.821Zm2.646,0a.882.882,0,1,0,.882.882A.833.833,0,0,0,195.528,136.821Z"
      transform="translate(-126.236 -126.236)" />
  </g>
</svg>