<?xml version="1.0" encoding="UTF-8"?>
<svg viewBox="0 0 18 18" version="1.1" xmlns="http://www.w3.org/2000/svg"
  xmlns:xlink="http://www.w3.org/1999/xlink">
  <title>风险等级@4x</title>
  <g id="页面-1" stroke="none" stroke-width="1" fill="none" fill-rule="evenodd">
    <g id="操作筛选区icon样式设计规范" transform="translate(-661.000000, -657.000000)" fill="#1E283C"
      fill-rule="nonzero">
      <g id="风险等级" transform="translate(645.000000, 646.000000)">
        <g transform="translate(16.000000, 11.000000)" id="形状">
          <path
            d="M14.8840909,7.67339841 L17.2235344,5.35969028 L17.1978403,5.29674098 C19.0685696,9.42733984 17.5713215,14.3045272 13.7051313,16.6740117 C9.83894113,19.0434961 4.8134148,18.1639425 1.98182256,14.6222309 L3.26909458,13.3478286 L3.45537646,13.5842097 C5.50828293,16.0623897 8.95727104,16.8758521 11.9012291,15.5762095 C14.8451871,14.2765668 16.567974,11.1799676 16.1199748,7.99328366 L15.0562411,8.60479119 L14.8828062,7.67339841 L14.8840909,7.67339841 Z M11.146891,5.13872537 L9.98680455,7.84683017 L12.1373967,7.84683017 L8.69439372,13.3131423 L7.53559196,13.3131423 L8.84084982,9.85349986 L6.42689361,9.85349986 L8.41818266,5.13872537 L11.146891,5.13872537 Z M8.99629884,3.29071322e-06 C11.710072,-0.00231765833 14.2792146,1.22319816 15.9850811,3.3337504 L14.697809,4.60686798 L14.5359365,4.40131923 C12.4828149,1.92240027 9.03291418,1.10885884 6.08853066,2.40928662 C3.14414715,3.70971441 1.42185564,6.8076262 1.87133813,9.99481462 L2.9350719,9.38202241 L3.09951383,10.265882 L0.752362152,12.5885829 L0.634169512,12.3098074 C-0.465141062,9.53969585 -0.120631412,6.40490085 1.55403991,3.93963517 C3.22871123,1.47436949 6.01598433,-0.00109929849 8.99629884,3.29071322e-06 L8.99629884,3.29071322e-06 Z" />
        </g>
      </g>
    </g>
  </g>
</svg>