<?xml version="1.0" encoding="UTF-8"?>
<svg viewBox="0 0 18 18" version="1.1" xmlns="http://www.w3.org/2000/svg"
  xmlns:xlink="http://www.w3.org/1999/xlink">
  <title>月活@4x</title>
  <g id="页面-1" stroke="none" stroke-width="1" fill="none" fill-rule="evenodd">
    <g id="操作筛选区icon样式设计规范" transform="translate(-385.000000, -804.000000)" fill="#1E283C"
      fill-rule="nonzero">
      <g id="月活" transform="translate(369.000000, 793.000000)">
        <g transform="translate(16.157895, 11.157895)" id="形状结合">
          <path
            d="M12.2105263,7.27595761e-12 C12.6398327,7.27595761e-12 12.9941069,0.321250681 13.0460704,0.736473368 L13.0526316,0.842105263 L13.052,1.263 L16,1.26315789 C16.8812177,1.26315789 17.6043504,1.93991771 17.6780286,2.80204792 L17.6842105,2.94736842 L17.6842105,16 C17.6842105,16.88122 17.0074599,17.6043506 16.145322,17.6780286 L16,17.6842105 L1.68421053,17.6842105 C0.803000244,17.6842105 0.0798609383,17.0074577 0.00618203715,16.1453216 L0,16 L0,2.94736842 C0,2.06616042 0.676761979,1.34301907 1.53889036,1.26933995 L1.68421053,1.26315789 L4.631,1.263 L4.63157895,0.842105263 C4.63157895,0.377023369 5.00860232,7.27595761e-12 5.47368421,7.27595761e-12 C5.90299057,7.27595761e-12 6.25726482,0.321250681 6.30922828,0.736473368 L6.31578947,0.842105263 L6.315,1.263 L11.368,1.263 L11.3684211,0.842105263 C11.3684211,0.377023369 11.7454444,7.27595761e-12 12.2105263,7.27595761e-12 Z M15.9991053,7.99910526 L1.68410526,7.99910526 L1.68410526,16 L16,16 L15.9991053,7.99910526 Z M13.0526316,12.6315789 C13.5177135,12.6315789 13.8947368,13.0086023 13.8947368,13.4736842 C13.8947368,13.9029906 13.5734862,14.2572648 13.1582635,14.3092283 L13.0526316,14.3157895 L10.5263158,14.3157895 C10.0612339,14.3157895 9.68421053,13.9387661 9.68421053,13.4736842 C9.68421053,13.0443778 10.0054612,12.6901036 10.4206839,12.6381401 L10.5263158,12.6315789 L13.0526316,12.6315789 Z M7.15789474,12.6315789 C7.62297663,12.6315789 8,13.0086023 8,13.4736842 C8,13.9029906 7.67874932,14.2572648 7.26352663,14.3092283 L7.15789474,14.3157895 L4.63157895,14.3157895 C4.16649705,14.3157895 3.78947368,13.9387661 3.78947368,13.4736842 C3.78947368,13.0443778 4.11072437,12.6901036 4.52594705,12.6381401 L4.63157895,12.6315789 L7.15789474,12.6315789 Z M13.0526316,9.26315789 C13.5177135,9.26315789 13.8947368,9.64018126 13.8947368,10.1052632 C13.8947368,10.5345695 13.5734862,10.8888438 13.1582635,10.9408072 L13.0526316,10.9473684 L10.5263158,10.9473684 C10.0612339,10.9473684 9.68421053,10.5703451 9.68421053,10.1052632 C9.68421053,9.67595679 10.0054612,9.32168255 10.4206839,9.26971909 L10.5263158,9.26315789 L13.0526316,9.26315789 Z M7.15789474,9.26315789 C7.62297663,9.26315789 8,9.64018126 8,10.1052632 C8,10.5345695 7.67874932,10.8888438 7.26352663,10.9408072 L7.15789474,10.9473684 L4.63157895,10.9473684 C4.16649705,10.9473684 3.78947368,10.5703451 3.78947368,10.1052632 C3.78947368,9.67595679 4.11072437,9.32168255 4.52594705,9.26971909 L4.63157895,9.26315789 L7.15789474,9.26315789 Z M4.631,2.947 L1.68410526,2.94736842 L1.68410526,6.31510526 L15.9991053,6.31510526 L16,2.94736842 L13.052,2.947 L13.0526316,4.21052632 C13.0526316,4.67560821 12.6756082,5.05263158 12.2105263,5.05263158 C11.78122,5.05263158 11.4269457,4.7313809 11.3749822,4.31615821 L11.3684211,4.21052632 L11.368,2.947 L6.315,2.947 L6.31578947,4.21052632 C6.31578947,4.67560821 5.93876611,5.05263158 5.47368421,5.05263158 C5.04437785,5.05263158 4.6901036,4.7313809 4.63814014,4.31615821 L4.63157895,4.21052632 L4.631,2.947 Z" />
        </g>
      </g>
    </g>
  </g>
</svg>