<?xml version="1.0" encoding="UTF-8"?>
<svg viewBox="0 0 18 18" version="1.1" xmlns="http://www.w3.org/2000/svg"
  xmlns:xlink="http://www.w3.org/1999/xlink">
  <title>资产用途@4x</title>
  <g id="页面-1" stroke="none" stroke-width="1" fill="none" fill-rule="evenodd">
    <g id="操作筛选区icon样式设计规范" transform="translate(-418.000000, -731.000000)" fill="#1E283C"
      fill-rule="nonzero">
      <g id="资产用途" transform="translate(402.000000, 720.000000)">
        <g transform="translate(16.000000, 11.000000)" id="形状">
          <path
            d="M9.81818183,12.2588182 L9.81818183,8.89690909 L12.6818182,7.66963636 L12.6818182,11.0323636 L9.81818183,12.2596364 L9.81818183,12.2588182 Z M5.31818182,7.66963636 L8.18181817,8.89690909 L8.18181817,12.2596364 L5.31818182,11.0323636 L5.31818182,7.66963636 Z M9,5.39018182 L11.4226364,6.42927272 L9,7.46672728 L6.57654545,6.42927272 L9,5.39018182 Z M14.2854546,6.20836363 C14.2789091,6.18381817 14.2674545,6.16336362 14.2584546,6.14045454 C14.2420514,6.09410904 14.2212282,6.04944882 14.1962727,6.0070909 C14.1823636,5.98336363 14.1651818,5.96127273 14.1488182,5.93918182 C14.1038889,5.87912668 14.0507312,5.82569358 13.9909091,5.78045455 C13.977,5.76981818 13.9663636,5.75590909 13.95,5.74609091 C13.9246364,5.72890909 13.896,5.7199091 13.869,5.70518181 C13.8526364,5.69699998 13.8395455,5.68390909 13.8223636,5.67654545 L9.32236364,3.74809091 C9.1165326,3.65975163 8.8834674,3.65975163 8.67763636,3.74809091 L4.17763637,5.67654545 C4.15963636,5.68472728 4.14654546,5.69781817 4.12936363,5.706 C4.10236363,5.71990908 4.07454544,5.72890909 4.04918181,5.74609091 C4.03363635,5.75590909 4.023,5.76981818 4.00827273,5.78127272 C3.94824646,5.82568706 3.89528374,5.87892563 3.85118182,5.93918182 C3.83481819,5.96127273 3.81763637,5.98336363 3.80290908,6.0070909 C3.77800086,6.04918785 3.75717866,6.093572 3.74072728,6.13963636 C3.73254545,6.16336362 3.72109091,6.18463636 3.71454544,6.20836363 C3.69351987,6.2801425 3.68250677,6.35448096 3.68181818,6.42927272 L3.68181818,11.5715454 C3.68181818,11.8987822 3.87686961,12.1945233 4.17763637,12.3234545 L8.67763636,14.2519091 C8.69645453,14.2600909 8.71690908,14.2633636 8.73654545,14.2707273 C8.82151313,14.2995665 8.91030976,14.3155609 9,14.3181818 C9.08957005,14.3170247 9.17832491,14.300988 9.26263636,14.2707273 C9.28227273,14.2633636 9.30354545,14.2609091 9.32236364,14.2519091 L13.8223636,12.3234545 C14.1231304,12.1945233 14.3181818,11.8987822 14.3181818,11.5715454 L14.3181818,6.42845455 C14.3174932,6.35366279 14.3064801,6.27932434 14.2854546,6.20754546 L14.2854546,6.20836363 Z" />
          <path
            d="M17.2276364,5.34763636 C17.7406364,6.50045454 18,7.72854545 18,9 C18,13.9630909 13.9630909,18 9,18 C4.03690909,18 0,13.9630909 0,9 C0,4.03690909 4.03690909,0 9,0 C10.0685455,0 11.1158182,0.185727266 12.1107273,0.552272728 L11.5445454,2.088 C10.7298143,1.78791043 9.86823888,1.63498772 9,1.63636363 C4.93936363,1.63636363 1.63636363,4.93936363 1.63636363,9 C1.63636363,13.0598182 4.93936363,16.3636364 9,16.3636364 C13.0598182,16.3636364 16.3636364,13.0598182 16.3636364,9 C16.3636364,7.96009091 16.1509091,6.95454545 15.7328182,6.01199999 L17.2276364,5.34763636 Z M14.7272727,2.04545453 C14.2896215,2.06503163 13.9448718,2.42554745 13.9448718,2.86363636 C13.9448718,3.30172527 14.2896215,3.66224109 14.7272727,3.68181818 C15.164924,3.66224109 15.5096737,3.30172527 15.5096737,2.86363636 C15.5096737,2.42554745 15.164924,2.06503163 14.7272727,2.04545453 L14.7272727,2.04545453 Z M14.7272727,5.31818182 C13.3731818,5.31818182 12.2727273,4.21772726 12.2727273,2.86363636 C12.2727273,1.51036362 13.3731818,0.409090903 14.7272727,0.409090903 C16.0805455,0.409090903 17.1818182,1.51036362 17.1818182,2.86363636 C17.1818182,4.21772726 16.0805455,5.31818182 14.7272727,5.31818182 Z" />
        </g>
      </g>
    </g>
  </g>
</svg>