<?xml version="1.0" encoding="UTF-8"?>
<svg viewBox="0 0 18 15" version="1.1" xmlns="http://www.w3.org/2000/svg"
  xmlns:xlink="http://www.w3.org/1999/xlink">
  <title>物流公司@4x</title>
  <g id="页面-1" stroke="none" stroke-width="1" fill="none" fill-rule="evenodd">
    <g id="操作筛选区icon样式设计规范" transform="translate(-247.000000, -879.000000)" fill="#1E283C"
      fill-rule="nonzero">
      <g id="物流公司" transform="translate(231.000000, 866.000000)">
        <g transform="translate(16.200000, 13.200000)" id="物流">
          <path
            d="M16,7.27595761e-12 C16.8864657,7.27595761e-12 17.6,0.724690794 17.6,1.6125 L17.6,1.6125 L17.6,10.55 C17.6,11.437819 16.8864679,12.1625 16,12.1625 L16,12.1625 C15.9999649,12.1662591 16,12.1706255 16,12.175 C16,13.5115221 14.9282679,14.6 13.6,14.6 C12.2717321,14.6 11.2,13.5115221 11.2,12.175 L11.201,12.162 L7.19899501,12.1624997 L7.19899501,12.1624997 L7.2,12.175 L7.2,12.175 C7.2,13.5115221 6.12826795,14.6 4.8,14.6 C3.47173205,14.6 2.4,13.5115221 2.4,12.175 L2.401,12.162 L0.8,12.1625 C0.392158954,12.1625 0.055598419,11.8573119 0.00623313573,11.4628503 L0,11.3625 L0,8.29998438 C0,8.0788564 0.0915272967,7.86759102 0.25284883,7.71635299 L0.25284883,7.71635299 L3.05284883,5.09136861 C3.20112555,4.95236001 3.39675291,4.875 3.6,4.875 L3.6,4.875 L5.6,4.875 L5.6,1.6125 C5.6,0.774013528 6.23645499,0.0810246512 7.05394963,0.00661380839 L7.2,7.27595761e-12 Z M5.601,12.162 L3.999,12.162 L4,12.175 C4,12.6333716 4.36098795,13 4.8,13 C5.2052419,13 5.54400171,12.6876066 5.59372073,12.2790244 L5.6,12.175 L5.601,12.162 Z M14.401,12.162 L12.799,12.162 L12.8,12.175 C12.8,12.6333716 13.1609879,13 13.6,13 C14.0052419,13 14.3440017,12.6876066 14.3937207,12.2790244 L14.4,12.175 L14.401,12.162 Z M16,1.6 L7.2,1.6 L7.2,10.5625 L16,10.5625 C15.9972121,10.5625 16,10.5596685 16,10.55 L16,10.55 L16,1.6125 C16,1.60283766 15.997206,1.6 16,1.6 L16,1.6 Z M5.6,6.475 L3.916,6.475 L1.6,8.646 L1.6,10.562 L5.6,10.562 L5.6,6.475 Z" />
        </g>
      </g>
    </g>
  </g>
</svg>