<?xml version="1.0" encoding="UTF-8"?>
<svg viewBox="0 0 16 16" version="1.1" xmlns="http://www.w3.org/2000/svg"
  xmlns:xlink="http://www.w3.org/1999/xlink">
  <title>资产原值@4x</title>
  <g id="页面-1" stroke="none" stroke-width="1" fill="none" fill-rule="evenodd">
    <g id="操作筛选区icon样式设计规范" transform="translate(-557.000000, -732.000000)" fill="#1E283C"
      fill-rule="nonzero">
      <g id="编组-9" transform="translate(540.000000, 704.000000)">
        <g id="资产原值" transform="translate(17.000000, 28.000000)">
          <path
            d="M0.952316415,4.42332109 C1.37950351,4.73414905 1.97474645,5.00794373 2.72123964,5.23643555 C4.15170202,5.67454298 6.03989067,5.91597847 8.0383095,5.91597847 C10.0349213,5.91597847 11.9232906,5.67490253 13.3564636,5.23769396 C14.0959093,5.0108201 14.6897066,4.73774452 15.1224955,4.42529859 C15.8476655,3.89928203 16,3.33749059 16,2.95870833 C16,2.57776879 15.8473041,2.0136403 15.1219534,1.49157875 C14.6895259,1.17841373 14.0951865,0.904978596 13.3564636,0.67918338 C11.9274469,0.241075943 10.0388968,0 8.03849021,0 C6.04187843,0 4.15296695,0.240716396 2.71852906,0.677565421 C1.97745703,0.905338142 1.38365973,1.17877327 0.953400646,1.48996079 C0.227507849,2.01525826 0.0751727224,2.57776879 0.0751727224,2.95709037 C0.0748119536,3.33551308 0.226965734,3.8967652 0.952316415,4.42332109 L0.952316415,4.42332109 Z M1.70657993,2.52060089 C2.0181157,2.295345 2.49861083,2.07907776 3.09475729,1.89624836 C4.40956834,1.49553376 6.16530008,1.27477219 8.0381288,1.27477219 C9.9140295,1.27477219 11.668677,1.4958933 12.9791511,1.89750677 C13.5828872,2.08213391 14.0501909,2.29246862 14.3691356,2.52365704 C14.6268212,2.70918304 14.7184387,2.87385535 14.7184387,2.9588881 C14.7184387,3.04679723 14.6262791,3.20787407 14.3684127,3.39501803 C14.055612,3.6211728 13.5749362,3.83726026 12.9796933,4.01990989 C11.6657857,4.42116381 9.91095751,4.6417456 8.0381288,4.6417456 C6.16421585,4.6417456 4.40974905,4.42062449 3.09800998,4.01865148 C2.48812993,3.83150751 2.02046486,3.62207166 1.70784486,3.39429894 C1.44799078,3.20589656 1.35583113,3.04122426 1.35583113,2.95744992 C1.35601184,2.87277671 1.44781008,2.7081044 1.70657993,2.52060089 L1.70657993,2.52060089 Z M15.2844074,12.4052539 C14.9305866,12.4052539 14.6438075,12.6907338 14.6438075,13.0425501 C14.6438075,13.1309985 14.5516478,13.2918956 14.2937815,13.47868 C13.9811615,13.7048348 13.5004856,13.9209222 12.905062,14.1039314 C11.592058,14.504646 9.83686838,14.7254076 7.96331684,14.7254076 C6.08976531,14.7254076 4.3352985,14.5042865 3.02337874,14.102673 C2.42271464,13.9184054 1.94203881,13.7026775 1.63321362,13.4783205 C1.37354024,13.2899181 1.28101918,13.129021 1.28101918,13.0411119 C1.28101918,12.6892956 0.994240022,12.4038157 0.640419236,12.4038157 C0.28659845,12.4038157 0,12.6891159 0,13.0409321 C0,13.4193548 0.152515191,13.980607 0.877865872,14.5080617 C1.3061372,14.8188897 1.90101873,15.092145 2.64660839,15.3208166 C4.07725147,15.7589241 5.96562084,16 7.96349755,16 C9.96119356,16 11.8495629,15.7592836 13.2820131,15.322075 C14.0218202,15.0946619 14.6154367,14.821766 15.0475029,14.5096797 C15.7730343,13.9840227 15.925188,13.4218717 15.925188,13.0425501 C15.9250073,12.6907338 15.6384089,12.4052539 15.2844074,12.4052539 Z"
            id="形状" />
          <path
            d="M15.2844074,9.16789699 C14.9305866,9.16789699 14.6438075,9.45337693 14.6438075,9.8051932 C14.6438075,9.88896754 14.5518285,10.0541792 14.2941429,10.2407838 C13.9800773,10.4672981 13.4994014,10.6833856 12.905062,10.8660352 C12.4326986,11.0100336 11.8976305,11.1324592 11.3148562,11.2289974 C10.9659145,11.2870642 10.7300942,11.6153302 10.788462,11.9624723 C10.8408665,12.2740194 11.112105,12.494781 11.4194845,12.494781 C11.4545413,12.494781 11.4901403,12.4919046 11.5259199,12.4861518 C12.1641707,12.3799058 12.7547153,12.2450759 13.2816516,12.0841788 C14.0200131,11.8576645 14.6136297,11.5845889 15.0476836,11.2717835 C15.7728536,10.7457669 15.925188,10.1839755 15.925188,9.8051932 C15.9250073,9.45337693 15.6384089,9.16789699 15.2844074,9.16789699 L15.2844074,9.16789699 Z M0.877865872,11.2701655 C1.3061372,11.5809935 1.90101873,11.8542488 2.64624698,12.0829204 C3.19179598,12.2501095 3.80492873,12.3890743 4.46920106,12.4969382 C4.50407716,12.502691 4.53859185,12.5052078 4.57310655,12.5052078 C4.88157033,12.5052078 5.15317025,12.2831878 5.20449052,11.9703824 C5.26141266,11.6230604 5.02450814,11.2956933 4.67520499,11.238885 C4.06875833,11.140549 3.51290913,11.0143482 3.02355944,10.864597 C2.42307605,10.6803294 1.94221951,10.4646015 1.63339432,10.2402445 C1.37335954,10.0514826 1.28119988,9.88716981 1.28119988,9.80339547 C1.28119988,9.4515792 0.994420727,9.16609926 0.640599941,9.16609926 C0.286779156,9.16609926 0,9.45175897 0,9.80357524 C0,10.1814586 0.152334485,10.7432501 0.877865872,11.2701655 L0.877865872,11.2701655 Z M15.2844074,5.95840496 C14.9305866,5.95840496 14.6438075,6.2438849 14.6438075,6.59570117 C14.6438075,6.67947551 14.5518285,6.84468714 14.2941429,7.03129178 C13.9800773,7.25780609 13.4994014,7.47389355 12.905062,7.65654318 C12.4326986,7.80054157 11.8976305,7.92296716 11.3148562,8.0195054 C10.9659145,8.07757216 10.7300942,8.40583814 10.788462,8.7529803 C10.8408665,9.06452736 11.112105,9.28528893 11.4194845,9.28528893 C11.4545413,9.28528893 11.4901403,9.28241256 11.5259199,9.27665981 C12.1641707,9.17041382 12.7547153,9.03558387 13.2816516,8.8746868 C14.0200131,8.64817249 14.6136297,8.37509691 15.0476836,8.06229143 C15.7728536,7.53627487 15.925188,6.97448343 15.925188,6.59570117 C15.9250073,6.2438849 15.6384089,5.95840496 15.2844074,5.95840496 L15.2844074,5.95840496 Z M0.877865872,8.06067348 C1.3061372,8.37150144 1.90101873,8.6447568 2.64624698,8.87342839 C3.19179598,9.04061752 3.80492873,9.17958225 4.46920106,9.28744621 C4.50407716,9.29319895 4.53859185,9.29571578 4.57310655,9.29571578 C4.88157033,9.29571578 5.15317025,9.0736958 5.20449052,8.76089033 C5.26141266,8.41356839 5.02450814,8.08620128 4.67520499,8.02939293 C4.06875833,7.93105695 3.51290913,7.80485613 3.02355944,7.655105 C2.42307605,7.47083741 1.94221951,7.25510949 1.63339432,7.03075246 C1.37372095,6.84235009 1.28119988,6.68145302 1.28119988,6.59354389 C1.28119988,6.24172762 0.994420727,5.95624768 0.640599941,5.95624768 C0.286779156,5.95624768 0,6.24172762 0,6.59354389 C0,6.97196661 0.152334485,7.53321873 0.877865872,8.06067348 Z M9.906982,9.84851856 C10.2608028,9.84851856 10.5475819,9.56321839 10.5475819,9.21122235 C10.5475819,8.8592263 10.2608028,8.57392614 9.906982,8.57392614 L9.21524248,8.57392614 L10.0043821,7.7888563 C10.2544781,7.54005011 10.2544781,7.13645914 10.0043821,6.88765295 C9.7542861,6.63884675 9.34860292,6.63884675 9.09850692,6.88765295 L8.06180118,7.91901215 L7.02509543,6.88765295 C6.77499944,6.63884675 6.36931626,6.63884675 6.11922026,6.88765295 C5.86912426,7.13645914 5.86912426,7.54005011 6.11922026,7.7888563 L6.90835987,8.57392614 L6.19077952,8.57392614 C5.83695873,8.57392614 5.55017958,8.8592263 5.55017958,9.21122235 C5.55017958,9.56321839 5.83695873,9.84851856 6.19077952,9.84851856 L7.40819046,9.84851856 L7.40819046,10.6005101 L6.19077952,10.6005101 C5.83695873,10.6005101 5.55017958,10.8858103 5.55017958,11.2378063 C5.55017958,11.5898024 5.83695873,11.8751025 6.19077952,11.8751025 L7.40819046,11.8751025 L7.40819046,13.4375119 C7.40819046,13.789508 7.69496962,14.0748081 8.0487904,14.0748081 C8.40261119,14.0748081 8.68939035,13.789508 8.68939035,13.4375119 L8.68939035,11.8751025 L9.90680129,11.8751025 C10.2606221,11.8751025 10.5474012,11.5898024 10.5474012,11.2378063 C10.5474012,10.8858103 10.2606221,10.6005101 9.90680129,10.6005101 L8.68939035,10.6005101 L8.68939035,9.84851856 L9.906982,9.84851856 L9.906982,9.84851856 Z"
            id="形状" />
        </g>
      </g>
    </g>
  </g>
</svg>