<?xml version="1.0" encoding="UTF-8"?>
<svg viewBox="0 0 18 16" version="1.1" xmlns="http://www.w3.org/2000/svg"
  xmlns:xlink="http://www.w3.org/1999/xlink">
  <title>资产数量@4x</title>
  <g id="页面-1" stroke="none" stroke-width="1" fill="none" fill-rule="evenodd">
    <g id="操作筛选区icon样式设计规范" transform="translate(-659.000000, -878.000000)" fill="#1E283C"
      fill-rule="nonzero">
      <g id="风险等级" transform="translate(643.000000, 866.000000)">
        <g id="资产数量" transform="translate(16.111111, 12.335133)">
          <path
            d="M16.8888889,0.00178495479 C17.3798087,0.00178495479 17.7777778,0.399754066 17.7777778,0.890673844 C17.7777778,1.34383056 17.4386798,1.71778671 17.0003892,1.77263703 L16.8888889,1.77956273 L7.11111111,1.77956273 C6.62019133,1.77956273 6.22222222,1.38159362 6.22222222,0.890673844 C6.22222222,0.437517126 6.56132016,0.0635609759 6.99961078,0.00871066116 L7.11111111,0.00178495479 L16.8888889,0.00178495479 Z M16.8888889,4.51791399 C17.3798087,4.51791399 17.7777778,4.9158831 17.7777778,5.40680288 C17.7777778,5.85995959 17.4386798,6.23391574 17.0003892,6.28876606 L16.8888889,6.29569176 L7.11111111,6.29569176 C6.62019133,6.29569176 6.22222222,5.89772265 6.22222222,5.40680288 C6.22222222,4.95364616 6.56132016,4.57969001 6.99961078,4.52483969 L7.11111111,4.51791399 L16.8888889,4.51791399 Z M16.8888889,9.03404302 C17.3798087,9.03404302 17.7777778,9.43201213 17.7777778,9.92293191 C17.7777778,10.3760886 17.4386798,10.7500448 17.0003892,10.8048951 L16.8888889,10.8118208 L7.11111111,10.8118208 C6.62019133,10.8118208 6.22222222,10.4138517 6.22222222,9.92293191 C6.22222222,9.46977519 6.56132016,9.09581904 6.99961078,9.04096873 L7.11111111,9.03404302 L16.8888889,9.03404302 Z M16.8888889,13.5501721 C17.3798087,13.5501721 17.7777778,13.9481412 17.7777778,14.4390609 C17.7777778,14.8922177 17.4386798,15.2661738 17.0003892,15.3210241 L16.8888889,15.3279498 L7.11111111,15.3279498 C6.62019133,15.3279498 6.22222222,14.9299807 6.22222222,14.4390609 C6.22222222,13.9859042 6.56132016,13.6119481 6.99961078,13.5570978 L7.11111111,13.5501721 L16.8888889,13.5501721 Z M3.55555556,9.03404302 C4.00871227,9.03404302 4.38266842,9.37314096 4.43751874,9.81143157 L4.44444444,9.92293191 L4.44444444,11.2777706 C4.44444444,11.4721747 4.38075759,11.6600855 4.26483395,11.8135443 L4.18910296,11.9012617 L2.56588889,13.5498674 L3.55555556,13.5501721 C4.00871227,13.5501721 4.38266842,13.88927 4.43751874,14.3275606 L4.44444444,14.4390609 C4.44444444,14.8922177 4.1053465,15.2661738 3.66705589,15.3210241 L3.55555556,15.3279498 L0.888888889,15.3279498 C0.435732171,15.3279498 0.0617760211,14.9888519 0.00692570637,14.5505613 L0,14.4390609 L0,13.987448 C0,13.793044 0.0636868555,13.6051332 0.179610491,13.4516743 L0.255341486,13.3639569 L2.66588889,10.9138674 L2.66588889,10.8108674 L0.888888889,10.8118208 C0.435732171,10.8118208 0.0617760211,10.4727229 0.00692570637,10.0344322 L0,9.92293191 C0,9.46977519 0.339097941,9.09581904 0.777388555,9.04096873 L0.888888889,9.03404302 L3.55555556,9.03404302 Z M1.33333333,6.29569176 C0.842413556,6.29569176 0.444444266,5.89772265 0.444444266,5.40680288 C0.444444266,4.95364616 0.783542385,4.57969001 1.221833,4.52483969 L1.33333333,4.51791399 L1.33288889,2.68186739 L1.22689637,2.67643632 C1.07608777,2.65835702 0.92896457,2.6016767 0.801502607,2.50626756 L0.709842239,2.42744705 C0.389101884,2.11179781 0.358590286,1.61258932 0.620965423,1.26206892 L0.699785931,1.17040856 L1.58867482,0.267182749 C2.12119603,-0.273927512 3.02426436,0.0614017391 3.10526123,0.784751333 L3.11111111,0.890673844 L3.11111111,4.51791399 C3.60203089,4.51791399 4,4.9158831 4,5.40680288 C4,5.85995959 3.66090206,6.23391574 3.22261144,6.28876606 L3.11111111,6.29569176 L1.33333333,6.29569176 Z"
            id="形状结合" />
        </g>
      </g>
    </g>
  </g>
</svg>