<?xml version="1.0" encoding="UTF-8"?>
<svg viewBox="0 0 16 18" version="1.1" xmlns="http://www.w3.org/2000/svg"
  xmlns:xlink="http://www.w3.org/1999/xlink">
  <title>规格型号@4x</title>
  <g id="页面-1" stroke="none" stroke-width="1" fill="none" fill-rule="evenodd">
    <g id="操作筛选区icon样式设计规范" transform="translate(-385.000000, -877.000000)" fill="#1E283C"
      fill-rule="nonzero">
      <g id="规格型号" transform="translate(368.000000, 866.000000)">
        <g transform="translate(17.207430, 11.207430)" id="规格">
          <path
            d="M7.39935388,0.104421406 C7.64301114,-0.0348071354 7.94212818,-0.0348071354 8.18578544,0.104421406 L8.18578544,0.104421406 L15.1857854,4.10430141 C15.4327353,4.2454114 15.5851393,4.50802695 15.5851393,4.79244966 L15.5851393,4.79244966 L15.5851393,12.7924897 C15.5851393,13.0769063 15.4327418,13.3395172 15.1858003,13.4806294 L15.1858003,13.4806294 L8.18580026,17.4807094 C7.94213542,17.6199493 7.6430039,17.6199493 7.39933906,17.4807094 L7.39933906,17.4807094 L0.399339061,13.4806294 C0.152397507,13.3395172 0,13.0769063 0,12.7924897 L0,12.7924897 L0,4.79244966 C0,4.50802695 0.152403991,4.2454114 0.399353883,4.10430141 L0.399353883,4.10430141 Z M7.79256966,1.70556966 L1.58456966,5.25256966 L1.58456966,12.3315697 L7.79256966,15.8785697 L13.9995697,12.3315697 L13.9995697,5.25256966 L7.79256966,1.70556966 Z M7.79256966,8 C8.19662271,8 8.53005729,8.30235358 8.57896408,8.69315141 L8.58513932,8.79256966 L8.58513932,11.7925697 C8.58513932,12.2302938 8.2302938,12.5851393 7.79256966,12.5851393 C7.38851661,12.5851393 7.05508202,12.2827857 7.00617524,11.8919879 L7,11.7925697 L7,8.79256966 C7,8.35484552 7.35484552,8 7.79256966,8 Z M10.7925697,6 C11.1966227,6 11.5300573,6.30235358 11.5789641,6.69315141 L11.5851393,6.79256966 L11.5851393,11.7925697 C11.5851393,12.2302938 11.2302938,12.5851393 10.7925697,12.5851393 C10.3885166,12.5851393 10.055082,12.2827857 10.0061752,11.8919879 L10,11.7925697 L10,6.79256966 C10,6.35484552 10.3548455,6 10.7925697,6 Z M4.79256966,9 C5.19662271,9 5.53005729,9.30235358 5.57896408,9.69315141 L5.58513932,9.79256966 L5.58513932,11.7925697 C5.58513932,12.2302938 5.2302938,12.5851393 4.79256966,12.5851393 C4.38851661,12.5851393 4.05508202,12.2827857 4.00617524,11.8919879 L4,11.7925697 L4,9.79256966 C4,9.35484552 4.35484552,9 4.79256966,9 Z" />
        </g>
      </g>
    </g>
  </g>
</svg>