<?xml version="1.0" encoding="UTF-8"?>
<svg viewBox="0 0 15 18" version="1.1" xmlns="http://www.w3.org/2000/svg"
  xmlns:xlink="http://www.w3.org/1999/xlink">
  <title>所属仓库@4x</title>
  <g id="页面-1" stroke="none" stroke-width="1" fill="none" fill-rule="evenodd">
    <g id="操作筛选区icon样式设计规范" transform="translate(-523.000000, -877.000000)" fill="#1E283C"
      fill-rule="nonzero">
      <g id="所属仓库" transform="translate(505.000000, 866.000000)">
        <g transform="translate(18.101754, 11.101754)" id="仓库">
          <path
            d="M6.8331769,0.200003154 C7.16269599,-0.0666677182 7.63379524,-0.0666677182 7.96331433,0.200003154 L7.96331433,0.200003154 L14.4633143,5.46027713 C14.6740514,5.63082093 14.7964912,5.88741943 14.7964912,6.15851959 L14.7964912,6.15851959 L14.7964912,16.6790675 C14.7964912,17.1751549 14.394333,17.5773131 13.8982456,17.5773131 L13.8982456,17.5773131 L0.898245614,17.5773131 C0.40215826,17.5773131 0,17.1751549 0,16.6790675 L0,16.6790675 L0,6.15851959 C0,5.88741943 0.122439838,5.63082093 0.333176901,5.46027713 L0.333176901,5.46027713 Z M7.39824561,2.05424561 L1.79624561,6.58724561 L1.79624561,15.7802456 L4.333,15.78 L4.33333333,10.9804374 C4.33333333,10.5225106 4.67600073,10.1446181 5.11890493,10.0891904 L5.23157895,10.0821918 L9.56491228,10.0821918 C10.0609996,10.0821918 10.4631579,10.48435 10.4631579,10.9804374 L10.4631579,10.9804374 L10.463,15.78 L12.9992456,15.7802456 L12.9992456,6.58724561 L7.39824561,2.05424561 Z M8.66624561,11.8782456 L6.12924561,11.8782456 L6.12924561,15.7802456 L8.66624561,15.7802456 L8.66624561,11.8782456 Z" />
        </g>
      </g>
    </g>
  </g>
</svg>