<?xml version="1.0" encoding="UTF-8"?>
<svg viewBox="0 0 18 18" version="1.1" xmlns="http://www.w3.org/2000/svg"
  xmlns:xlink="http://www.w3.org/1999/xlink">
  <title>系统模块@4x</title>
  <g id="页面-1" stroke="none" stroke-width="1" fill="none" fill-rule="evenodd">
    <g id="操作筛选区icon样式设计规范" transform="translate(-247.000000, -804.000000)" fill="#1E283C"
      fill-rule="nonzero">
      <g id="系统模块" transform="translate(231.000000, 793.000000)">
        <g transform="translate(16.111111, 11.111111)" id="形状结合">
          <path
            d="M6.22222222,0 L1.77777778,0 C0.795938,0 0,0.795938 0,1.77777778 L0,6.22222222 C0,7.20407279 0.795935457,8 1.77777778,8 L6.22222222,8 C7.20407533,8 8,7.20407533 8,6.22222222 L8,1.77777778 C8,0.795935457 7.20407279,0 6.22222222,0 Z M1.77777778,1.77777778 L6.22222222,1.77777778 L6.22222222,6.22222222 L1.77777778,6.22222222 L1.77777778,1.77777778 Z M6.22222222,9.77777778 L1.77777778,9.77777778 C0.795935457,9.77777778 0,10.573705 0,11.5555556 L0,16 C0,16.9818506 0.795935457,17.7777778 1.77777778,17.7777778 L6.22222222,17.7777778 C7.20407533,17.7777778 8,16.9818531 8,16 L8,11.5555556 C8,10.5737024 7.20407533,9.77777778 6.22222222,9.77777778 Z M1.77777778,11.5555556 L6.22222222,11.5555556 L6.22222222,16 L1.77777778,16 L1.77777778,11.5555556 Z M13.7777778,0 C11.5686371,0 9.77777778,1.79086111 9.77777778,4 C9.77777778,6.209142 11.5686358,8 13.7777778,8 C15.9869198,8 17.7777778,6.209142 17.7777778,4 C17.7777778,1.79086111 15.9869184,0 13.7777778,0 Z M13.7777778,1.77777778 C15.0050785,1.77777778 16,2.77270027 16,4 C16,5.22730244 15.0050802,6.22222222 13.7777778,6.22222222 C12.5504753,6.22222222 11.5555556,5.22730244 11.5555556,4 C11.5555556,2.77270027 12.5504771,1.77777778 13.7777778,1.77777778 Z M16,9.77777778 L11.5555556,9.77777778 C10.5737024,9.77777778 9.77777778,10.5737024 9.77777778,11.5555556 L9.77777778,16 C9.77777778,16.9818531 10.5737024,17.7777778 11.5555556,17.7777778 L16,17.7777778 C16.9818531,17.7777778 17.7777778,16.9818531 17.7777778,16 L17.7777778,11.5555556 C17.7777778,10.5737024 16.9818531,9.77777778 16,9.77777778 Z M11.5555556,11.5555556 L16,11.5555556 L16,16 L11.5555556,16 L11.5555556,11.5555556 Z" />
        </g>
      </g>
    </g>
  </g>
</svg>