<?xml version="1.0" encoding="UTF-8"?>
<svg viewBox="0 0 18 18" version="1.1" xmlns="http://www.w3.org/2000/svg"
  xmlns:xlink="http://www.w3.org/1999/xlink">
  <title>时间@4x</title>
  <g id="页面-1" stroke="none" stroke-width="1" fill="none" fill-rule="evenodd">
    <g id="操作筛选区icon样式设计规范" transform="translate(-246.000000, -434.000000)" fill="#1E283C"
      fill-rule="nonzero">
      <g id="时间类" transform="translate(230.000000, 423.000000)">
        <g id="时间" transform="translate(16.000000, 11.000000)">
          <path
            d="M12.6219249,8.79700504 L10.0303716,8.79700504 L10.0303716,4.80815416 C10.0128304,4.25112641 9.55623197,3.8086509 8.99896611,3.8086509 C8.44170025,3.8086509 7.98510178,4.25112641 7.96756062,4.80815416 L7.96756062,9.93331616 C7.9742635,10.4366663 8.38361987,10.8414968 8.8869791,10.8425696 L12.6219249,10.8425696 C13.1867534,10.8425696 13.6446373,10.3846544 13.6446373,9.81978732 C13.6446373,9.25492026 13.1867534,8.79700504 12.6219249,8.79700504 Z"
            id="路径" />
          <path
            d="M15.2881362,2.56212427 C13.6113512,0.914711846 11.3531139,-0.00576825352 9.00254562,2.720155e-05 L8.89311539,0.00107743869 C3.93193738,0.0603988184 -0.0576638142,4.14436845 0.000630787915,9.10690807 C0.0313121603,14.0223997 4.0403449,18 8.94731914,18 L9.10686228,18 C14.0700857,17.9406786 18.0586642,13.8556862 17.9993469,8.89416937 C17.9767826,6.50622568 17.0006193,4.22639154 15.2881362,2.56212427 L15.2881362,2.56212427 Z M15.8485826,9.10281694 C15.8485826,12.9085898 12.7385141,15.9759139 8.9105015,15.95556 C5.16014227,15.950206 2.10862745,12.9349212 2.05832821,9.18463953 C2.03123187,7.36648321 2.73324163,5.61318065 4.00761809,4.31619588 C5.27367893,3.01165294 7.0088927,2.26772866 8.82663906,2.25017567 L8.99640933,2.25017567 C12.7743091,2.25017567 15.8485826,5.32465919 15.8485826,9.10281694 Z"
            id="形状" />
        </g>
      </g>
    </g>
  </g>
</svg>