<?xml version="1.0" encoding="UTF-8"?>
<svg viewBox="0 0 18 18" version="1.1" xmlns="http://www.w3.org/2000/svg"
  xmlns:xlink="http://www.w3.org/1999/xlink">
  <title>操作类型@4x</title>
  <g id="页面-1" stroke="none" stroke-width="1" fill="none" fill-rule="evenodd">
    <g id="操作筛选区icon样式设计规范" transform="translate(-523.000000, -286.000000)" fill="#1C283E"
      fill-rule="nonzero">
      <g id="操作类型" transform="translate(507.000000, 275.000000)">
        <g transform="translate(16.000000, 11.000000)" id="形状">
          <path
            d="M6.3,0 L1.8,0 C0.80588745,0 0,0.80588745 0,1.8 L0,6.3 C0,7.29411255 0.80588745,8.1 1.8,8.1 L8.1,8.1 L8.1,1.8 C8.1,0.80588745 7.29411255,0 6.3,0 Z M6.3,6.3 L1.8,6.3 L1.8,1.8 L6.3,1.8 L6.3,6.3 Z M16.2,0 L11.7,0 C10.7058875,0 9.9,0.80588745 9.9,1.8 L9.9,8.1 L16.2,8.1 C17.1941125,8.1 18,7.29411255 18,6.3 L18,1.8 C18,0.80588745 17.1941125,0 16.2,0 Z M16.2,6.3 L11.7,6.3 L11.7,1.8 L16.2,1.8 L16.2,6.3 Z M16.2,9.9 L9.9,9.9 L9.9,16.2 C9.9,17.1941125 10.7058875,18 11.7,18 L16.2,18 C17.1941125,18 18,17.1941125 18,16.2 L18,11.7 C18,10.7058875 17.1941125,9.9 16.2,9.9 Z M16.2,16.2 L11.7,16.2 L11.7,11.7 L16.2,11.7 L16.2,16.2 Z M0,11.7 L0,16.2 C0,17.1941125 0.80588745,18 1.8,18 L6.3,18 C7.29411255,18 8.1,17.1941125 8.1,16.2 L8.1,9.9 L1.8,9.9 C0.80588745,9.9 0,10.7058875 0,11.7 Z M6.3,16.2 L1.8,16.2 L1.8,11.7 L6.3,11.7 L6.3,16.2 Z" />
        </g>
      </g>
    </g>
  </g>
</svg>