<?xml version="1.0" encoding="UTF-8"?>
<svg viewBox="0 0 18 18" version="1.1" xmlns="http://www.w3.org/2000/svg"
  xmlns:xlink="http://www.w3.org/1999/xlink">
  <title>任务类型@4x</title>
  <g id="页面-1" stroke="none" stroke-width="1" fill="none" fill-rule="evenodd">
    <g id="操作筛选区icon样式设计规范" transform="translate(-385.000000, -286.000000)" fill-rule="nonzero">
      <g id="任务类型" transform="translate(369.000000, 275.000000)">
        <g transform="translate(16.000000, 11.000000)">
          <path
            d="M14.625,18 L3.375,18 C1.51875,18 0,16.65 0,15 L0,3 C0,1.35 1.51875,0 3.375,0 L14.625,0 C16.48125,0 18,1.35 18,3 L18,15 C18,16.66 16.48125,18 14.625,18 Z M3.16666668,2 C2.525,2 2,2.45 2,3 L2,15 C2,15.55 2.525,16 3.16666668,16 L14.8333334,16 C15.475,16 16,15.55 16,15 L16,3 C16,2.45 15.475,2 14.8333334,2 L3.16666668,2 Z"
            id="形状" fill="currentColor" />
          <path
            d="M8.33204328,12.5674795 C8.07204328,12.5674795 7.82204328,12.4674795 7.62204326,12.2774795 L5.29204327,9.94747952 C5.04017103,9.69560728 4.94180372,9.32849549 5.03399536,8.98443161 C5.126187,8.64036773 5.39493148,8.37162325 5.73899536,8.27943161 C6.08305924,8.18723997 6.45017103,8.28560728 6.70204327,8.53747952 L8.33204328,10.1674795 L12.2720433,6.28747952 C12.4602125,6.10157039 12.7146059,5.99814911 12.9791174,6 C13.2436289,6.00190105 13.4965298,6.10892017 13.6820433,6.29747953 C14.0720433,6.68747953 14.0620433,7.32747954 13.6720433,7.70747953 L9.03204326,12.2774795 C8.83204327,12.4774795 8.58204326,12.5674795 8.33204328,12.5674795 L8.33204328,12.5674795 Z"
            id="路径" fill="currentColor" />
        </g>
      </g>
    </g>
  </g>
</svg>
