<?xml version="1.0" encoding="UTF-8"?>
<svg viewBox="0 0 18 18" version="1.1" xmlns="http://www.w3.org/2000/svg"
  xmlns:xlink="http://www.w3.org/1999/xlink">
  <title>业务类型@4x</title>
  <g id="页面-1" stroke="none" stroke-width="1" fill="none" fill-rule="evenodd">
    <g id="操作筛选区icon样式设计规范" transform="translate(-799.000000, -286.000000)">
      <g id="单据类型" transform="translate(783.000000, 275.000000)">
        <g id="业务类型" transform="translate(16.000000, 11.000000)">
          <rect id="矩形" fill-opacity="0" fill="#FFFFFF" x="0" y="0" width="18" height="18" />
          <g id="yewuleixing" fill="currentColor" fill-rule="nonzero">
            <path
              d="M6.28915663,9.75903617 L0.867469875,9.75903617 C0.388379492,9.75903617 0,10.1474157 0,10.626506 L0,17.1325301 C0,17.6116205 0.388379492,18 0.867469875,18 L17.1325301,18 C17.6116205,18 18,17.6116205 18,17.1325301 L18,10.626506 C18,10.1474157 17.6116205,9.75903617 17.1325301,9.75903617 L11.7108434,9.75903617 L11.6024096,9.7655422 C11.1685621,9.82020182 10.8432234,10.1892289 10.8433735,10.626506 L10.8433735,11.9277109 L7.15662651,11.9277109 L7.15662651,10.626506 C7.15662651,10.3964387 7.06523262,10.1757944 6.90255046,10.0131122 C6.7398683,9.85043006 6.51922395,9.75903617 6.28915663,9.75903617 L6.28915663,9.75903617 Z M16.2650603,11.4939759 L16.2650603,16.2650603 L1.73493975,16.2650603 L1.73493975,11.4939759 L5.42168674,11.4939759 L5.42168674,12.7951807 C5.42168673,13.0252481 5.51308062,13.2458924 5.67576278,13.4085746 C5.83844495,13.5712567 6.05908931,13.6626506 6.28915663,13.6626506 L11.7108434,13.6626506 L11.8192771,13.6561446 C12.2531246,13.601485 12.5784634,13.2324579 12.5783133,12.7951807 L12.5783133,11.4939759 L16.2650603,11.4939759 L16.2650603,11.4939759 Z"
              id="形状" />
            <path
              d="M14.9638554,0 C15.4011326,-0.000150041302 15.7701597,0.325188691 15.8248193,0.759036197 L15.8313253,0.867469924 L15.8313253,10.626506 L14.0963855,10.626506 L14.0963855,1.7349398 L3.90361446,1.7349398 L3.90361446,10.626506 L2.16867464,10.626506 L2.16867464,0.867469924 C2.1685246,0.430192769 2.49386333,0.0611656986 2.92771084,0.00650608023 L3.03614457,0 L14.9638554,0 Z"
              id="路径" />
            <path
              d="M11.7108434,3.25300865 C12.1697747,3.25173302 12.5502941,3.60813176 12.5790289,4.06616442 C12.6077637,4.52419707 12.27477,4.92535824 11.8192771,4.98144582 L11.7108434,4.98795528 L6.28915663,4.98795528 C5.8302253,4.98923092 5.44970591,4.63283217 5.42097111,4.17479952 C5.39223631,3.71676686 5.72522998,3.31560569 6.18072289,3.25951811 L6.28915663,3.25300865 L11.7108434,3.25300865 L11.7108434,3.25300865 Z M11.7108434,6.50602071 C12.1697746,6.50474515 12.5502939,6.86114387 12.5790287,7.31917647 C12.6077635,7.77720907 12.27477,8.1783702 11.8192771,8.23445785 L11.7108434,8.24096731 L6.28915663,8.24096731 C5.8302253,8.24224295 5.44970591,7.88584421 5.42097111,7.42781155 C5.39223631,6.96977889 5.72522998,6.56861772 6.18072289,6.51253015 L6.28915663,6.50602071 L11.7108434,6.50602071 L11.7108434,6.50602071 Z"
              id="形状" />
          </g>
        </g>
      </g>
    </g>
  </g>
</svg>
