<?xml version="1.0" encoding="UTF-8"?>
<svg viewBox="0 0 18 17" version="1.1" xmlns="http://www.w3.org/2000/svg"
  xmlns:xlink="http://www.w3.org/1999/xlink">
  <title>公告类型@4x</title>
  <g id="页面-1" stroke="none" stroke-width="1" fill="none" fill-rule="evenodd">
    <g id="操作筛选区icon样式设计规范" transform="translate(-247.000000, -287.000000)" fill="#1E283C"
      fill-rule="nonzero">
      <g id="公告类型" transform="translate(231.000000, 275.000000)">
        <g transform="translate(16.000000, 12.000000)" id="renwujihua">
          <path
            d="M16.5078499,7.49271033 C15.9000476,7.49271032 15.4073266,7.01348831 15.4073266,6.422338 L2.20104665,6.422338 L2.20104665,13.9149443 L4.4020933,13.9149443 C5.00984203,13.9150179 5.50247958,14.3942183 5.50247958,14.9853166 C5.50247958,15.5764148 5.00984203,16.0556153 4.4020933,16.0556889 L1.25459659,16.0556889 C0.609952639,16.0810587 0.0581244449,15.6102606 0,14.9853166 L0,1.07047638 C0.0782034247,0.455666131 0.617667088,-0.00458298396 1.25459659,5.15503399e-05 L16.2943484,5.15503399e-05 C16.9432555,-0.00556363539 17.5002438,0.448145327 17.6083732,1.07047638 L17.6083732,6.422338 C17.6083732,7.01348832 17.1156521,7.49271033 16.5078499,7.49271033 L16.5078499,7.49271033 Z M15.4073266,2.14084871 L2.20104665,2.14084871 L2.20104665,4.28159335 L15.4073266,4.28159335 L15.4073266,2.14084871 Z M8.8041866,11.7741996 L11.0052333,13.9149443 L15.4073266,9.63345498 C16.8005891,8.06321878 18.728706,9.99738157 17.7184255,10.8847202 L11.3408929,16.7599939 C11.1837513,16.8992997 10.9829135,16.983015 10.7708218,16.9976166 C10.7264941,17.0007945 10.6819861,17.0007945 10.6376585,16.9976166 C10.3798003,16.9781557 10.1412905,16.857142 9.97734447,16.66259 L6.7043881,13.1592614 C5.76123961,12.0471446 7.8599376,10.6631531 8.8041866,11.7741996 Z"
            id="形状" />
        </g>
      </g>
    </g>
  </g>
</svg>