<?xml version="1.0" encoding="UTF-8"?>
<svg viewBox="0 0 16 18" version="1.1" xmlns="http://www.w3.org/2000/svg"
  xmlns:xlink="http://www.w3.org/1999/xlink">
  <title>字典类型@4x</title>
  <g id="页面-1" stroke="none" stroke-width="1" fill="none" fill-rule="evenodd"
    stroke-linejoin="round">
    <g id="操作筛选区icon样式设计规范" transform="translate(-248.000000, -360.000000)" stroke="#1E283C"
      stroke-width="1.69411765">
      <g id="公告类型" transform="translate(231.000000, 349.000000)">
        <g id="书籍1_book-one" transform="translate(18.000000, 12.000000)">
          <path
            d="M0,13.4736842 C0,10.2301895 0,2.52631579 0,2.52631579 C0,1.13106947 1.10611941,0 2.47058824,0 L11.5294118,0 L11.5294118,10.9473684 C11.5294118,10.9473684 4.62518824,10.9473684 2.47058824,10.9473684 C1.11176471,10.9473684 0,12.0775579 0,13.4736842 Z"
            id="路径" />
          <path
            d="M11.5294118,10.9473684 C11.5294118,10.9473684 2.94564118,10.9473684 2.47058824,10.9473684 C1.10611941,10.9473684 0,12.0784421 0,13.4736842 C0,14.8689263 1.10611941,16 2.47058824,16 C3.38021765,16 7.77238824,16 14,16 L14,0.842105263"
            id="路径" stroke-linecap="round" />
          <line x1="2.88235294" y1="13.4736842" x2="11.1176471" y2="13.4736842" id="路径"
            stroke-linecap="round" />
        </g>
      </g>
    </g>
  </g>
</svg>