<?xml version="1.0" encoding="UTF-8"?>
<svg viewBox="0 0 15 18" version="1.1" xmlns="http://www.w3.org/2000/svg"
  xmlns:xlink="http://www.w3.org/1999/xlink">
  <title>单据类型@4x</title>
  <g id="页面-1" stroke="none" stroke-width="1" fill="none" fill-rule="evenodd">
    <g id="操作筛选区icon样式设计规范" transform="translate(-663.000000, -286.000000)" fill="#1C283E"
      fill-rule="nonzero">
      <g id="单据类型" transform="translate(645.000000, 275.000000)">
        <g transform="translate(18.000000, 11.000000)" id="形状">
          <path
            d="M4.87395795e-08,1.50375001 C-0.000208813164,0.674628773 0.670880934,0.00186129882 1.50000005,0 L13.5,0 C14.32875,0 15,0.67275 15,1.50375001 L15,18 L12.17625,16.125 L9.80100003,18 L7.51912505,16.125 L5.19075006,18 L2.75400008,16.125 L4.87395795e-08,18 L4.87395795e-08,1.50375001 Z M1.49999784,2.624625 L1.49999784,15.4575 L3.12900009,14.05725 L5.19075006,15.669 L7.51912505,14.05725 L9.80100003,15.669 L11.80125,14.05725 L13.4999978,15.4575 L13.4999978,2.62499999 C13.4999978,2.00426497 12.9972345,1.50082765 12.3765,1.49999943 L2.62350008,1.49999943 C2.32524259,1.49970044 2.03913125,1.6181272 1.82833681,1.82913271 C1.61754237,2.04013823 1.49940204,2.32636795 1.49999784,2.624625 Z M2.9999997,4.5 C2.9999997,4.08562501 3.33637508,3.74999999 3.75187507,3.74999999 L11.248125,3.74999999 C11.66325,3.74999999 11.9999997,4.08299999 11.9999997,4.5 C11.9999997,4.91437499 11.663625,5.24999999 11.248125,5.24999999 L3.75187507,5.24999999 C3.55257715,5.25069835 3.36121337,5.17196509 3.22011178,5.03121537 C3.07901018,4.89046564 2.99979936,4.69929904 2.9999997,4.5 Z M2.9999997,7.875 C2.9999997,7.46062501 3.33637508,7.12499999 3.75187507,7.12499999 L11.248125,7.12499999 C11.66325,7.12499999 11.9999997,7.45799999 11.9999997,7.875 C11.9999997,8.28937499 11.663625,8.62499999 11.248125,8.62499999 L3.75187507,8.62499999 C3.55257715,8.62569835 3.36121337,8.54696509 3.22011178,8.40621537 C3.07901018,8.26546564 2.99979936,8.07429904 2.9999997,7.875 Z M2.9999997,11.25 C2.9999997,10.835625 3.33637508,10.5 3.75187507,10.5 L11.248125,10.5 C11.66325,10.5 11.9999997,10.833 11.9999997,11.25 C11.9999997,11.664375 11.663625,12 11.248125,12 L3.75187507,12 C3.55257715,12.0006984 3.36121337,11.9219651 3.22011178,11.7812154 C3.07901018,11.6404656 2.99979936,11.449299 2.9999997,11.25 Z" />
        </g>
      </g>
    </g>
  </g>
</svg>