<?xml version="1.0" encoding="UTF-8"?>
<svg viewBox="0 0 18 18" version="1.1" xmlns="http://www.w3.org/2000/svg"
  xmlns:xlink="http://www.w3.org/1999/xlink">
  <title>用户账号@4x</title>
  <g id="页面-1" stroke="none" stroke-width="1" fill="none" fill-rule="evenodd">
    <g id="操作筛选区icon样式设计规范" transform="translate(-247.000000, -583.000000)" fill="#1E283C"
      fill-rule="nonzero">
      <g id="用户账号" transform="translate(231.000000, 572.000000)">
        <g transform="translate(16.000000, 11.000000)" id="形状">
          <path
            d="M13.8834804,14.2794206 C15.8536654,14.2719664 17.5631092,15.6310508 17.9907528,17.5449166 C18.0158773,17.6553671 17.9891869,17.7711942 17.9182127,17.8597155 C17.8472386,17.9482367 17.7396769,17.999853 17.6258781,18 L10.1410828,18 C10.0272839,17.999853 9.9197223,17.9482367 9.84874814,17.8597155 C9.77777397,17.7711942 9.7510836,17.6553671 9.77620813,17.5449166 C10.2038517,15.6310508 11.9132955,14.2719664 13.8834804,14.2794206 L13.8834804,14.2794206 Z M15.7175837,0 C16.9581575,0 17.962779,1.00094137 17.962779,2.23426573 L17.962779,6.70400753 C17.962779,7.1155191 17.6283106,7.44835933 17.214786,7.44835933 L17.1041074,7.43988704 C16.7377119,7.38542715 16.4663234,7.07266341 16.4655767,6.70400753 L16.4655767,3.9105702 C16.4655789,3.80810037 16.3824596,3.72484505 16.2794906,3.72417967 L1.68450464,3.72417967 C1.58106042,3.72417967 1.49720232,3.80762955 1.49720232,3.9105702 L1.49720232,13.035234 C1.49720232,13.4467456 1.83167074,13.7795858 2.24519535,13.7795858 L8.98199764,13.7795858 C9.39552225,13.7795858 9.72999067,14.112426 9.72999067,14.5239376 L9.72147693,14.6340775 C9.66675064,14.9986893 9.35245691,15.2687567 8.98199764,15.2694997 L2.24519535,15.2694997 C1.64973252,15.2694997 1.0786583,15.0341046 0.657602492,14.6150984 C0.236546688,14.1960923 0,13.6277981 0,13.035234 L0,2.23426573 C0,0.999731038 1.00583779,0 2.24519535,0 L15.7175837,0 Z M13.9892941,8.32705756 C15.4939372,8.32705756 16.7136915,9.54087405 16.7136915,11.0381926 C16.7136915,12.5355111 15.4939372,13.7493276 13.9892941,13.7493276 C12.484651,13.7493276 11.2648967,12.5355111 11.2648967,11.0381926 C11.2648967,9.54087405 12.484651,8.32705756 13.9892941,8.32705756 L13.9892941,8.32705756 Z M6.39990137,9.62210866 C6.60903124,9.60839363 6.80845068,9.71163942 6.91719834,9.88992974 C7.02594599,10.0682201 7.02594599,10.2919198 6.91719834,10.4702101 C6.80845068,10.6485004 6.60903124,10.7517462 6.39990137,10.7380312 L4.15348977,10.7380312 C3.94672362,10.7476118 3.75140739,10.6432946 3.64514465,10.4665272 C3.53888192,10.2897598 3.53888192,10.0691697 3.64514465,9.89240233 C3.75140739,9.71563495 3.94672362,9.61131775 4.15348977,9.62089833 L6.39990137,9.62210866 Z M7.89588743,6.26949973 C8.10265358,6.25991915 8.29796982,6.36423635 8.40423255,6.54100373 C8.51049528,6.71777111 8.51049528,6.93836122 8.40423255,7.1151286 C8.29796982,7.29189598 8.10265358,7.39621318 7.89588743,7.3866326 L4.15348977,7.3866326 C3.94672362,7.39621318 3.75140739,7.29189598 3.64514465,7.1151286 C3.53888192,6.93836122 3.53888192,6.71777111 3.64514465,6.54100373 C3.75140739,6.36423635 3.94672362,6.25991915 4.15348977,6.26949973 L7.89588743,6.26949973 Z M7.85939997,1.11834307 C7.59596013,1.11819095 7.35324804,1.26051319 7.22573432,1.48991393 C7.15365985,1.60130852 7.11369346,1.730253 7.11019069,1.862695 C7.11383943,1.99583109 7.15397564,2.12412587 7.22573432,2.23426573 C7.35304873,2.46395885 7.59579928,2.60659375 7.85939997,2.60659375 C8.12300065,2.60659375 8.36575121,2.46395885 8.49306561,2.23426573 C8.56438637,2.12304366 8.60391068,1.99458733 8.607393,1.862695 C8.60394719,1.73041866 8.56442878,1.60156315 8.49306561,1.48991393 C8.3655519,1.26051319 8.1228398,1.11819095 7.85939997,1.11834307 L7.85939997,1.11834307 Z M5.23959998,1.11834307 C4.97659578,1.11863113 4.73445337,1.26089237 4.60715058,1.48991393 C4.53464702,1.60118313 4.49425713,1.73013655 4.4903907,1.862695 C4.49403944,1.99583109 4.53417565,2.12412587 4.60593434,2.23426573 C4.73324874,2.46395885 4.97599929,2.60659375 5.23959998,2.60659375 C5.50320067,2.60659375 5.74595122,2.46395885 5.87326562,2.23426573 C5.94458638,2.12304366 5.98411069,1.99458733 5.98759301,1.862695 C5.9841472,1.73041866 5.94462879,1.60156315 5.87326562,1.48991393 C5.74575191,1.26051319 5.50303981,1.11819095 5.23959998,1.11834307 L5.23959998,1.11834307 Z M2.61979999,1.1183432 C2.32587289,1.11950858 2.059876,1.29187269 1.93991689,1.55890264 C1.89534857,1.65367561 1.87170897,1.75685331 1.87059071,1.86148467 C1.87423945,1.99462076 1.91437567,2.12412587 1.98613435,2.23426573 C2.11344875,2.46395885 2.3561993,2.60659375 2.61979999,2.60659375 C2.88340068,2.60659375 3.12615123,2.46395885 3.25346563,2.23426573 C3.32478639,2.12304366 3.3643107,1.99458733 3.36779302,1.862695 C3.36434721,1.73041866 3.3248288,1.60156315 3.25346563,1.48991393 C3.12381512,1.26243079 2.88258091,1.1205144 2.61979999,1.11713287 L2.61979999,1.1183432 Z" />
        </g>
      </g>
    </g>
  </g>
</svg>