<?xml version="1.0" encoding="UTF-8"?>
<svg viewBox="0 0 18 18" version="1.1" xmlns="http://www.w3.org/2000/svg"
  xmlns:xlink="http://www.w3.org/1999/xlink">
  <title>登录人@4x</title>
  <g id="页面-1" stroke="none" stroke-width="1" fill="none" fill-rule="evenodd">
    <g id="操作筛选区icon样式设计规范" transform="translate(-522.000000, -583.000000)" fill="#1E283C"
      fill-rule="nonzero">
      <g id="登录人" transform="translate(506.000000, 572.000000)">
        <g transform="translate(16.111110, 11.111111)" id="形状结合">
          <path
            d="M8.88889026,0 C6.6797496,0 4.88889026,1.79086111 4.88889026,4 C4.88889026,6.209142 6.67974826,8 8.88889026,8 C11.0980323,8 12.8888903,6.209142 12.8888903,4 C12.8888903,1.79086111 11.0980309,0 8.88889026,0 Z M8.88889026,1.77777778 C10.116191,1.77777778 11.1111125,2.77270027 11.1111125,4 C11.1111125,5.22730244 10.1161927,6.22222222 8.88889026,6.22222222 C7.66158782,6.22222222 6.66666804,5.22730244 6.66666804,4 C6.66666804,2.77270027 7.66158955,1.77777778 8.88889026,1.77777778 Z M12.0530909,9.77967944 L6.01749292,9.77876438 L5.29060038,9.78519747 L4.68350272,9.79998088 L4.33618517,9.81581251 L4.02840206,9.83736084 L3.7546703,9.86542804 L3.50950681,9.90081629 L3.28742848,9.94432775 C3.18124677,9.96824798 3.08166583,9.99551523 2.98560143,10.0265807 L2.79724751,10.0939097 C2.76633202,10.1060199 2.73557881,10.1185854 2.70487362,10.1316232 L2.52030507,10.2156493 C2.4893351,10.2306425 2.45818469,10.2461413 2.42673963,10.2621624 C1.59044181,10.6882781 0.910520938,11.3682134 0.484415952,12.204501 C0.244283733,12.6757875 0.1198273,13.1338393 0.0576376701,13.860787 L0.0314844914,14.247975 C0.0279080237,14.3166764 0.0247021485,14.3875717 0.0218359576,14.4608241 L0.00846776168,14.9299303 L0.00176840906,15.4634449 L7.16637967e-08,16.8885333 C-0.000194988296,17.3795919 0.397831619,17.7777778 0.888890261,17.7777778 L16.8888903,17.7777778 C17.37981,17.7777778 17.7777792,17.3798087 17.7777792,16.8888889 L17.7732979,15.2964499 L17.7615988,14.6514768 L17.7483247,14.2823358 L17.729735,13.9554709 L17.7050275,13.6653989 C17.6956829,13.5742311 17.685185,13.4882816 17.6734,13.4066366 L17.6340504,13.1737011 C17.6195578,13.0997511 17.6036444,13.0291918 17.5861766,12.9611092 L17.5289762,12.7633778 L17.4616472,12.5750239 C17.4495371,12.5441084 17.4369715,12.5133552 17.4239337,12.48265 L17.3399077,12.2980815 C17.3249144,12.2671115 17.3094156,12.2359611 17.2933945,12.204516 C16.8672735,11.3682189 16.187338,10.6882834 15.3510643,10.2621744 L15.2492214,10.2118706 L15.0459137,10.121727 C14.7391024,9.99660344 14.4172829,9.91577617 13.9902183,9.8641682 L13.6889264,9.83392621 C13.6357824,9.82955219 13.5810914,9.82549754 13.5247299,9.82174158 L13.165522,9.80262458 L12.7602766,9.78968334 L12.0530909,9.77967944 Z M5.8190943,11.5577709 L11.994618,11.5572006 L12.4242746,11.5617103 L12.8002676,11.569643 L13.1276528,11.5815005 L13.4114859,11.5977848 L13.6568228,11.6189976 C13.7327474,11.6269458 13.8030987,11.635799 13.8687191,11.6456409 L14.0522307,11.6782164 C14.0807315,11.6841679 14.1082602,11.6903875 14.1349222,11.6968856 L14.2853362,11.7393006 C14.3089527,11.7469547 14.3319131,11.7549083 14.3543228,11.7631718 L14.4830147,11.8165553 C14.5036428,11.8261003 14.5239308,11.8359761 14.5439841,11.8461931 C15.0457314,12.1018499 15.453707,12.5098255 15.7093758,13.0115963 L15.7378908,13.069875 L15.7916593,13.197021 C15.799969,13.2190252 15.8079603,13.241519 15.8156448,13.2646265 L15.858161,13.4116314 L15.8938619,13.5793337 C15.9046873,13.639347 15.9144683,13.7038043 15.9232965,13.7737 L15.9470138,14.0006966 L15.9730709,14.4154251 L15.9848969,14.750101 L15.9929272,15.1382899 L15.9988903,15.9998889 L1.77789026,15.9998889 L1.78158477,15.2531188 L1.78952514,14.8150759 L1.80277691,14.4383294 C1.80546842,14.3802667 1.80841143,14.3244732 1.81162105,14.2708066 L1.83419876,13.9731905 C1.83853519,13.927462 1.84316841,13.8835755 1.84811353,13.8413888 L1.8816478,13.6075263 C1.92541953,13.3558255 1.98595388,13.173459 2.06842956,13.0115912 C2.32409736,12.5098092 2.73205386,12.1018441 3.23381563,11.8461833 L3.35169097,11.7910179 L3.47742839,11.7430743 C3.54312751,11.7208283 3.6137209,11.7011114 3.69212754,11.6836549 L3.86022339,11.6516765 C3.89026394,11.6468226 3.92138885,11.6421999 3.95370623,11.6377986 L4.16278504,11.6139668 L4.40567247,11.5949692 L4.6875578,11.5803283 L5.19485848,11.5654913 L5.8190943,11.5577709 Z" />
        </g>
      </g>
    </g>
  </g>
</svg>