<?xml version="1.0" encoding="UTF-8"?>
<svg viewBox="0 0 18 18" version="1.1" xmlns="http://www.w3.org/2000/svg"
  xmlns:xlink="http://www.w3.org/1999/xlink">
  <title>用户角色@4x</title>
  <g id="页面-1" stroke="none" stroke-width="1" fill="none" fill-rule="evenodd">
    <g id="操作筛选区icon样式设计规范" transform="translate(-385.000000, -583.000000)">
      <g id="用户角色" transform="translate(386.000000, 584.000000)">
        <path
          d="M12.8,0 L16,0 L16,3.2 M3.2,0 L0,0 L0,3.2 M12.8,16 L16,16 L16,12.8 M3.2,16 L0,16 L0,12.8"
          id="形状结合" stroke="#333333" stroke-width="1.6" stroke-linecap="round"
          stroke-linejoin="round" />
        <path
          d="M8.01696089,9.27942055 C10.0510302,9.27196645 11.8159037,10.6310508 12.2574138,12.5449166 C12.283353,12.6553671 12.2557972,12.7711942 12.1825216,12.8597155 C12.1092461,12.9482367 11.9981967,12.999853 11.8807079,13 L4.15321389,13 C4.03572507,12.999853 3.92467568,12.9482367 3.85140014,12.8597155 C3.77812459,12.7711942 3.75056877,12.6553671 3.77650798,12.5449166 C4.21801809,10.6310508 5.98289159,9.27196645 8.01696089,9.27942055 L8.01696089,9.27942055 Z M10.7136915,6.03819258 C10.7136915,7.5355111 9.49393722,8.7493276 7.98929409,8.7493276 C6.48465096,8.7493276 5.2648967,7.5355111 5.2648967,6.03819258 C5.2648967,4.54087405 6.48465096,3.32705756 7.98929409,3.32705756 C9.49393722,3.32705756 10.7136915,4.54087405 10.7136915,6.03819258 Z"
          id="形状结合" fill="#333333" />
      </g>
    </g>
  </g>
</svg>