<?xml version="1.0" encoding="UTF-8"?>
<svg viewBox="0 0 18 18" version="1.1" xmlns="http://www.w3.org/2000/svg"
  xmlns:xlink="http://www.w3.org/1999/xlink">
  <title>选择@4x</title>
  <g id="页面-1" stroke="none" stroke-width="1" fill="none" fill-rule="evenodd">
    <g id="操作筛选区icon样式设计规范" transform="translate(-247.000000, -507.000000)" fill="#1E283C"
      fill-rule="nonzero">
      <g id="选择" transform="translate(247.975000, 507.975000)">
        <path
          d="M15.524925,3.15075 C15.9046208,3.15075 16.218416,3.43290388 16.2680784,3.79897944 L16.274925,3.90075 L16.274925,14.7750375 C16.274925,15.5547158 15.6800407,16.1954841 14.9193857,16.2681707 L14.774925,16.2750375 L3.901275,16.2750375 C3.48706144,16.2750375 3.151275,15.9392511 3.151275,15.5250375 C3.151275,15.1453417 3.43342888,14.8315465 3.79950444,14.7818841 L3.901275,14.7750375 L14.774925,14.7750375 L14.774925,3.90075 C14.774925,3.48653644 15.1107114,3.15075 15.524925,3.15075 Z M11.775,0 C12.8933896,0 13.8,0.906620819 13.8,2.025 L13.8,2.025 L13.8,11.775 C13.8,12.8933938 12.8933938,13.8 11.775,13.8 L11.775,13.8 L2.025,13.8 C0.906620819,13.8 0,12.8933896 0,11.775 L0,11.775 L0,2.025 C0,0.906624975 0.906624975,0 2.025,0 L2.025,0 Z M11.775,1.8 L2.025,1.8 C1.90073752,1.8 1.8,1.90073752 1.8,2.025 L1.8,2.025 L1.8,11.775 C1.8,11.8992724 1.90072873,12 2.025,12 L2.025,12 L11.775,12 C11.8992812,12 12,11.8992812 12,11.775 L12,11.775 L12,2.025 C12,1.90072873 11.8992724,1.8 11.775,1.8 L11.775,1.8 Z M10.4226605,4.38180965 C10.6927229,4.64422548 10.7229092,5.06049864 10.5092932,5.357208 L10.4378903,5.44236048 L6.68777785,9.30174798 C6.43032089,9.56670701 6.02360242,9.6014371 5.72718429,9.39873137 L5.64182742,9.33078938 L3.39193992,7.25887688 C3.08724339,6.97828304 3.06770429,6.50381146 3.34829812,6.19911492 C3.60338343,5.92211808 4.01869828,5.88078853 4.32102494,6.08637759 L4.40806008,6.15547312 L6.12,7.732 L9.36210965,4.39703952 C9.65076706,4.09997089 10.1255918,4.09315224 10.4226605,4.38180965 Z"
          id="形状结合" />
      </g>
    </g>
  </g>
</svg>